<svg height="16" viewBox="0 0 16 16" width="16" xmlns="http://www.w3.org/2000/svg"><path fill="white" d="m13.333 0h-10.666c-1.467 0-2.667 1.2-2.667 2.667v10.666c0 1.467 1.2 2.667 2.667 2.667h10.666c1.468 0 2.667-1.2 2.667-2.667v-10.666c0-1.467-1.199-2.667-2.667-2.667zm-9.333 4h8c.143 0 .281.031.409.088l-4.409 5.143-4.409-5.143c.127-.058.266-.088.409-.088zm-1 7v-6c0-.021.001-.042.002-.063l2.932 3.421-2.9 2.9c-.023-.083-.034-.17-.034-.258zm9 1h-8c-.088 0-.175-.012-.258-.034l2.846-2.846 1.413 1.648 1.413-1.648 2.846 2.846c-.083.023-.17.034-.258.034zm1-1c0 .088-.012.175-.034.258l-2.9-2.9 2.932-3.421c.001.021.002.042.002.063z"/></svg>