<svg xmlns="http://www.w3.org/2000/svg" xmlns:xlink="http://www.w3.org/1999/xlink" width="500" zoomAndPan="magnify" viewBox="0 0 375 374.999991" height="500" preserveAspectRatio="xMidYMid meet" version="1.0"><defs><g/></defs><g fill="#f8f8f8" fill-opacity="1"><g transform="translate(70.30133, 259.790584)"><g><path d="M 20.078125 0 L 28.859375 -178.203125 L 38.65625 -178.203125 L 112.703125 -7.28125 L 187 -178.203125 L 196.78125 -178.203125 L 204.5625 0 L 197.78125 0 L 190 -167.671875 L 116.71875 0 L 108.4375 0 L 35.640625 -167.171875 L 27.359375 0 Z M 20.078125 0 "/></g></g></g><g fill="#f8f8f8" fill-opacity="1"><g transform="translate(118.306316, 259.790584)"><g><path d="M 134.28125 -178.203125 L 68.265625 -81.328125 L 68.265625 0 L 60.484375 0 L 60.484375 -81.828125 L -5.015625 -178.203125 L 3.765625 -178.203125 L 64.765625 -88.609375 L 125.75 -178.203125 Z M 134.28125 -178.203125 "/></g></g></g><g fill="#f8f8f8" fill-opacity="1"><g transform="translate(53.152284, 280.266282)"><g><path d="M 1.125 0 L 1.609375 -9.9375 L 2.15625 -9.9375 L 6.28125 -0.40625 L 10.4375 -9.9375 L 10.96875 -9.9375 L 11.40625 0 L 11.03125 0 L 10.59375 -9.359375 L 6.515625 0 L 6.046875 0 L 1.984375 -9.328125 L 1.53125 0 Z M 1.125 0 "/></g></g></g><g fill="#f8f8f8" fill-opacity="1"><g transform="translate(69.105889, 280.266282)"><g><path d="M 0.453125 0 L 4.484375 -9.9375 L 4.890625 -9.9375 L 8.75 0 L 8.296875 0 L 7.15625 -3 L 2.09375 -3 L 0.890625 0 Z M 2.25 -3.375 L 7 -3.375 L 4.6875 -9.40625 Z M 2.25 -3.375 "/></g></g></g><g fill="#f8f8f8" fill-opacity="1"><g transform="translate(81.757336, 280.266282)"><g><path d="M 8.109375 -9.9375 L 8.515625 -9.9375 L 8.515625 0 L 8.1875 0 L 1.671875 -9.125 L 1.671875 0 L 1.265625 0 L 1.265625 -9.9375 L 1.59375 -9.9375 L 8.109375 -0.8125 Z M 8.109375 -9.9375 "/></g></g></g><g fill="#f8f8f8" fill-opacity="1"><g transform="translate(94.926489, 280.266282)"><g><path d="M 1.265625 0 L 1.265625 -9.9375 L 1.6875 -9.9375 L 1.6875 -5.15625 L 6.671875 -9.9375 L 7.25 -9.9375 L 2.125 -5.046875 C 2.414062 -4.921875 2.710938 -4.640625 3.015625 -4.203125 L 4.953125 -1.375 C 5.253906 -0.9375 5.507812 -0.648438 5.71875 -0.515625 C 5.925781 -0.378906 6.160156 -0.3125 6.421875 -0.3125 C 6.660156 -0.3125 6.882812 -0.375 7.09375 -0.5 L 7.203125 -0.1875 C 6.992188 -0.03125 6.722656 0.046875 6.390625 0.046875 C 6.054688 0.046875 5.757812 -0.0351562 5.5 -0.203125 C 5.25 -0.367188 4.976562 -0.65625 4.6875 -1.0625 L 2.5625 -4.15625 C 2.425781 -4.34375 2.289062 -4.484375 2.15625 -4.578125 C 2.019531 -4.671875 1.863281 -4.726562 1.6875 -4.75 L 1.6875 0 Z M 1.265625 0 "/></g></g></g><g fill="#f8f8f8" fill-opacity="1"><g transform="translate(105.353172, 280.266282)"><g><path d="M 1.265625 0 L 1.265625 -9.9375 L 1.6875 -9.9375 L 1.6875 0 Z M 1.265625 0 "/></g></g></g><g fill="#f8f8f8" fill-opacity="1"><g transform="translate(111.708127, 280.266282)"><g><path d="M 7.328125 -9.9375 L 7.75 -9.9375 L 3.90625 0 L 3.4375 0 L 0.28125 -9.9375 L 0.734375 -9.9375 L 3.6875 -0.453125 Z M 7.328125 -9.9375 "/></g></g></g><g fill="#f8f8f8" fill-opacity="1"><g transform="translate(122.77846, 280.266282)"><g><path d="M 4.03125 0.09375 C 3.007812 0.09375 2.203125 -0.144531 1.609375 -0.625 C 1.023438 -1.113281 0.675781 -1.878906 0.5625 -2.921875 L 0.984375 -2.96875 C 1.148438 -2.007812 1.46875 -1.328125 1.9375 -0.921875 C 2.40625 -0.523438 3.113281 -0.328125 4.0625 -0.328125 C 4.84375 -0.328125 5.460938 -0.519531 5.921875 -0.90625 C 6.378906 -1.289062 6.609375 -1.8125 6.609375 -2.46875 C 6.609375 -2.925781 6.515625 -3.289062 6.328125 -3.5625 C 6.148438 -3.832031 5.863281 -4.046875 5.46875 -4.203125 C 5.082031 -4.367188 4.578125 -4.515625 3.953125 -4.640625 C 3.421875 -4.734375 2.945312 -4.867188 2.53125 -5.046875 C 2.113281 -5.222656 1.78125 -5.488281 1.53125 -5.84375 C 1.28125 -6.207031 1.15625 -6.707031 1.15625 -7.34375 C 1.15625 -7.875 1.28125 -8.34375 1.53125 -8.75 C 1.78125 -9.15625 2.117188 -9.476562 2.546875 -9.71875 C 2.984375 -9.957031 3.484375 -10.078125 4.046875 -10.078125 C 4.847656 -10.078125 5.503906 -9.859375 6.015625 -9.421875 C 6.523438 -8.992188 6.832031 -8.347656 6.9375 -7.484375 L 6.546875 -7.4375 C 6.429688 -8.207031 6.164062 -8.769531 5.75 -9.125 C 5.34375 -9.476562 4.773438 -9.65625 4.046875 -9.65625 C 3.304688 -9.65625 2.710938 -9.445312 2.265625 -9.03125 C 1.816406 -8.613281 1.59375 -8.050781 1.59375 -7.34375 C 1.59375 -6.832031 1.691406 -6.425781 1.890625 -6.125 C 2.085938 -5.820312 2.367188 -5.585938 2.734375 -5.421875 C 3.097656 -5.265625 3.535156 -5.140625 4.046875 -5.046875 C 4.773438 -4.898438 5.359375 -4.726562 5.796875 -4.53125 C 6.234375 -4.332031 6.550781 -4.066406 6.75 -3.734375 C 6.945312 -3.410156 7.046875 -2.988281 7.046875 -2.46875 C 7.046875 -1.945312 6.914062 -1.492188 6.65625 -1.109375 C 6.40625 -0.722656 6.050781 -0.425781 5.59375 -0.21875 C 5.144531 -0.0078125 4.625 0.09375 4.03125 0.09375 Z M 4.03125 0.09375 "/></g></g></g><g fill="#f8f8f8" fill-opacity="1"><g transform="translate(133.848793, 280.266282)"><g><path d="M 1.265625 0 L 1.265625 -9.9375 L 1.6875 -9.9375 L 1.6875 -5.15625 L 6.671875 -9.9375 L 7.25 -9.9375 L 2.125 -5.046875 C 2.414062 -4.921875 2.710938 -4.640625 3.015625 -4.203125 L 4.953125 -1.375 C 5.253906 -0.9375 5.507812 -0.648438 5.71875 -0.515625 C 5.925781 -0.378906 6.160156 -0.3125 6.421875 -0.3125 C 6.660156 -0.3125 6.882812 -0.375 7.09375 -0.5 L 7.203125 -0.1875 C 6.992188 -0.03125 6.722656 0.046875 6.390625 0.046875 C 6.054688 0.046875 5.757812 -0.0351562 5.5 -0.203125 C 5.25 -0.367188 4.976562 -0.65625 4.6875 -1.0625 L 2.5625 -4.15625 C 2.425781 -4.34375 2.289062 -4.484375 2.15625 -4.578125 C 2.019531 -4.671875 1.863281 -4.726562 1.6875 -4.75 L 1.6875 0 Z M 1.265625 0 "/></g></g></g><g fill="#f8f8f8" fill-opacity="1"><g transform="translate(144.275476, 280.266282)"><g><path d="M 7.484375 -9.9375 L 3.8125 -4.53125 L 3.8125 0 L 3.375 0 L 3.375 -4.5625 L -0.28125 -9.9375 L 0.203125 -9.9375 L 3.609375 -4.9375 L 7.015625 -9.9375 Z M 7.484375 -9.9375 "/></g></g></g><g fill="#f8f8f8" fill-opacity="1"><g transform="translate(154.870066, 280.266282)"><g><path d="M 1.265625 0 L 1.265625 -9.9375 L 1.6875 -9.9375 L 1.6875 0 Z M 1.265625 0 "/></g></g></g><g fill="#f8f8f8" fill-opacity="1"><g transform="translate(161.225016, 280.266282)"><g/></g></g><g fill="#f8f8f8" fill-opacity="1"><g transform="translate(167.649934, 280.266282)"><g><path d="M 11.640625 -9.9375 L 12.078125 -9.9375 L 9.1875 0 L 8.65625 0 L 6.359375 -9.15625 L 3.625 0 L 3.09375 0 L 0.640625 -9.9375 L 1.078125 -9.9375 L 3.375 -0.40625 L 6.203125 -9.9375 L 6.53125 -9.9375 L 8.9375 -0.375 Z M 11.640625 -9.9375 "/></g></g></g><g fill="#f8f8f8" fill-opacity="1"><g transform="translate(183.533566, 280.266282)"><g><path d="M 6.453125 -9.578125 L 1.6875 -9.578125 L 1.6875 -5.25 L 6.40625 -5.25 L 6.40625 -4.890625 L 1.6875 -4.890625 L 1.6875 -0.359375 L 6.6875 -0.359375 L 6.625 0 L 1.265625 0 L 1.265625 -9.9375 L 6.453125 -9.9375 Z M 6.453125 -9.578125 "/></g></g></g><g fill="#f8f8f8" fill-opacity="1"><g transform="translate(194.226101, 280.266282)"><g><path d="M 1.265625 0 L 1.265625 -9.9375 L 3.203125 -9.9375 C 4.210938 -9.9375 5.015625 -9.835938 5.609375 -9.640625 C 6.210938 -9.441406 6.640625 -9.148438 6.890625 -8.765625 C 7.148438 -8.390625 7.28125 -7.9375 7.28125 -7.40625 C 7.28125 -6.8125 7.109375 -6.304688 6.765625 -5.890625 C 6.429688 -5.472656 5.9375 -5.191406 5.28125 -5.046875 C 5.9375 -4.890625 6.445312 -4.585938 6.8125 -4.140625 C 7.1875 -3.691406 7.375 -3.171875 7.375 -2.578125 C 7.375 -1.703125 7.097656 -1.050781 6.546875 -0.625 C 6.003906 -0.207031 5.273438 0 4.359375 0 Z M 3.1875 -9.5625 L 1.6875 -9.5625 L 1.6875 -5.203125 L 3.703125 -5.203125 C 4.734375 -5.203125 5.515625 -5.378906 6.046875 -5.734375 C 6.578125 -6.097656 6.84375 -6.65625 6.84375 -7.40625 C 6.84375 -8.175781 6.554688 -8.726562 5.984375 -9.0625 C 5.410156 -9.394531 4.476562 -9.5625 3.1875 -9.5625 Z M 1.6875 -0.375 L 4.3125 -0.375 C 5.125 -0.375 5.765625 -0.546875 6.234375 -0.890625 C 6.703125 -1.242188 6.9375 -1.804688 6.9375 -2.578125 C 6.9375 -3.316406 6.6875 -3.875 6.1875 -4.25 C 5.695312 -4.625 5 -4.8125 4.09375 -4.8125 L 1.6875 -4.8125 Z M 1.6875 -0.375 "/></g></g></g><g fill="#f8f8f8" fill-opacity="1"><g transform="translate(205.898089, 280.266282)"><g/></g></g><g fill="#f8f8f8" fill-opacity="1"><g transform="translate(212.323008, 280.266282)"><g><path d="M 4.03125 0.09375 C 3.007812 0.09375 2.203125 -0.144531 1.609375 -0.625 C 1.023438 -1.113281 0.675781 -1.878906 0.5625 -2.921875 L 0.984375 -2.96875 C 1.148438 -2.007812 1.46875 -1.328125 1.9375 -0.921875 C 2.40625 -0.523438 3.113281 -0.328125 4.0625 -0.328125 C 4.84375 -0.328125 5.460938 -0.519531 5.921875 -0.90625 C 6.378906 -1.289062 6.609375 -1.8125 6.609375 -2.46875 C 6.609375 -2.925781 6.515625 -3.289062 6.328125 -3.5625 C 6.148438 -3.832031 5.863281 -4.046875 5.46875 -4.203125 C 5.082031 -4.367188 4.578125 -4.515625 3.953125 -4.640625 C 3.421875 -4.734375 2.945312 -4.867188 2.53125 -5.046875 C 2.113281 -5.222656 1.78125 -5.488281 1.53125 -5.84375 C 1.28125 -6.207031 1.15625 -6.707031 1.15625 -7.34375 C 1.15625 -7.875 1.28125 -8.34375 1.53125 -8.75 C 1.78125 -9.15625 2.117188 -9.476562 2.546875 -9.71875 C 2.984375 -9.957031 3.484375 -10.078125 4.046875 -10.078125 C 4.847656 -10.078125 5.503906 -9.859375 6.015625 -9.421875 C 6.523438 -8.992188 6.832031 -8.347656 6.9375 -7.484375 L 6.546875 -7.4375 C 6.429688 -8.207031 6.164062 -8.769531 5.75 -9.125 C 5.34375 -9.476562 4.773438 -9.65625 4.046875 -9.65625 C 3.304688 -9.65625 2.710938 -9.445312 2.265625 -9.03125 C 1.816406 -8.613281 1.59375 -8.050781 1.59375 -7.34375 C 1.59375 -6.832031 1.691406 -6.425781 1.890625 -6.125 C 2.085938 -5.820312 2.367188 -5.585938 2.734375 -5.421875 C 3.097656 -5.265625 3.535156 -5.140625 4.046875 -5.046875 C 4.773438 -4.898438 5.359375 -4.726562 5.796875 -4.53125 C 6.234375 -4.332031 6.550781 -4.066406 6.75 -3.734375 C 6.945312 -3.410156 7.046875 -2.988281 7.046875 -2.46875 C 7.046875 -1.945312 6.914062 -1.492188 6.65625 -1.109375 C 6.40625 -0.722656 6.050781 -0.425781 5.59375 -0.21875 C 5.144531 -0.0078125 4.625 0.09375 4.03125 0.09375 Z M 4.03125 0.09375 "/></g></g></g><g fill="#f8f8f8" fill-opacity="1"><g transform="translate(223.393335, 280.266282)"><g><path d="M 5.265625 0.09375 C 4.398438 0.09375 3.644531 -0.09375 3 -0.46875 C 2.363281 -0.851562 1.867188 -1.410156 1.515625 -2.140625 C 1.171875 -2.867188 1 -3.75 1 -4.78125 C 1 -5.820312 1.195312 -6.738281 1.59375 -7.53125 C 1.988281 -8.332031 2.523438 -8.957031 3.203125 -9.40625 C 3.890625 -9.851562 4.671875 -10.078125 5.546875 -10.078125 C 6.378906 -10.078125 7.101562 -9.867188 7.71875 -9.453125 C 8.34375 -9.046875 8.828125 -8.476562 9.171875 -7.75 C 9.515625 -7.019531 9.6875 -6.160156 9.6875 -5.171875 C 9.6875 -4.097656 9.492188 -3.164062 9.109375 -2.375 C 8.734375 -1.582031 8.210938 -0.972656 7.546875 -0.546875 C 6.878906 -0.117188 6.117188 0.09375 5.265625 0.09375 Z M 5.265625 -0.34375 C 6.046875 -0.34375 6.734375 -0.53125 7.328125 -0.90625 C 7.929688 -1.289062 8.398438 -1.847656 8.734375 -2.578125 C 9.066406 -3.304688 9.234375 -4.1875 9.234375 -5.21875 C 9.234375 -6.132812 9.082031 -6.921875 8.78125 -7.578125 C 8.476562 -8.234375 8.050781 -8.738281 7.5 -9.09375 C 6.945312 -9.457031 6.300781 -9.640625 5.5625 -9.640625 C 4.757812 -9.640625 4.046875 -9.4375 3.421875 -9.03125 C 2.796875 -8.632812 2.304688 -8.070312 1.953125 -7.34375 C 1.609375 -6.613281 1.4375 -5.753906 1.4375 -4.765625 C 1.4375 -3.335938 1.773438 -2.242188 2.453125 -1.484375 C 3.140625 -0.722656 4.078125 -0.34375 5.265625 -0.34375 Z M 5.265625 -0.34375 "/></g></g></g><g fill="#f8f8f8" fill-opacity="1"><g transform="translate(237.471982, 280.266282)"><g><path d="M 1.265625 0 L 1.265625 -9.9375 L 1.6875 -9.9375 L 1.6875 -0.375 L 6.53125 -0.375 L 6.453125 0 Z M 1.265625 0 "/></g></g></g><g fill="#f8f8f8" fill-opacity="1"><g transform="translate(247.283024, 280.266282)"><g><path d="M 8.140625 -9.9375 L 8.578125 -9.9375 L 8.59375 -4.859375 C 8.601562 -3.191406 8.304688 -1.945312 7.703125 -1.125 C 7.097656 -0.3125 6.125 0.09375 4.78125 0.09375 C 3.539062 0.09375 2.632812 -0.253906 2.0625 -0.953125 C 1.5 -1.648438 1.21875 -2.753906 1.21875 -4.265625 L 1.21875 -9.9375 L 1.6875 -9.9375 L 1.6875 -4.28125 C 1.6875 -2.875 1.925781 -1.863281 2.40625 -1.25 C 2.894531 -0.644531 3.6875 -0.34375 4.78125 -0.34375 C 6.019531 -0.34375 6.894531 -0.707031 7.40625 -1.4375 C 7.914062 -2.175781 8.164062 -3.3125 8.15625 -4.84375 Z M 8.140625 -9.9375 "/></g></g></g><g fill="#f8f8f8" fill-opacity="1"><g transform="translate(260.494151, 280.266282)"><g><path d="M 7.125 -9.9375 L 7.09375 -9.578125 L 3.859375 -9.578125 L 3.859375 0 L 3.4375 0 L 3.4375 -9.578125 L 0.125 -9.578125 L 0.125 -9.9375 Z M 7.125 -9.9375 "/></g></g></g><g fill="#f8f8f8" fill-opacity="1"><g transform="translate(271.186686, 280.266282)"><g><path d="M 1.265625 0 L 1.265625 -9.9375 L 1.6875 -9.9375 L 1.6875 0 Z M 1.265625 0 "/></g></g></g><g fill="#f8f8f8" fill-opacity="1"><g transform="translate(277.541636, 280.266282)"><g><path d="M 5.265625 0.09375 C 4.398438 0.09375 3.644531 -0.09375 3 -0.46875 C 2.363281 -0.851562 1.867188 -1.410156 1.515625 -2.140625 C 1.171875 -2.867188 1 -3.75 1 -4.78125 C 1 -5.820312 1.195312 -6.738281 1.59375 -7.53125 C 1.988281 -8.332031 2.523438 -8.957031 3.203125 -9.40625 C 3.890625 -9.851562 4.671875 -10.078125 5.546875 -10.078125 C 6.378906 -10.078125 7.101562 -9.867188 7.71875 -9.453125 C 8.34375 -9.046875 8.828125 -8.476562 9.171875 -7.75 C 9.515625 -7.019531 9.6875 -6.160156 9.6875 -5.171875 C 9.6875 -4.097656 9.492188 -3.164062 9.109375 -2.375 C 8.734375 -1.582031 8.210938 -0.972656 7.546875 -0.546875 C 6.878906 -0.117188 6.117188 0.09375 5.265625 0.09375 Z M 5.265625 -0.34375 C 6.046875 -0.34375 6.734375 -0.53125 7.328125 -0.90625 C 7.929688 -1.289062 8.398438 -1.847656 8.734375 -2.578125 C 9.066406 -3.304688 9.234375 -4.1875 9.234375 -5.21875 C 9.234375 -6.132812 9.082031 -6.921875 8.78125 -7.578125 C 8.476562 -8.234375 8.050781 -8.738281 7.5 -9.09375 C 6.945312 -9.457031 6.300781 -9.640625 5.5625 -9.640625 C 4.757812 -9.640625 4.046875 -9.4375 3.421875 -9.03125 C 2.796875 -8.632812 2.304688 -8.070312 1.953125 -7.34375 C 1.609375 -6.613281 1.4375 -5.753906 1.4375 -4.765625 C 1.4375 -3.335938 1.773438 -2.242188 2.453125 -1.484375 C 3.140625 -0.722656 4.078125 -0.34375 5.265625 -0.34375 Z M 5.265625 -0.34375 "/></g></g></g><g fill="#f8f8f8" fill-opacity="1"><g transform="translate(291.620293, 280.266282)"><g><path d="M 8.109375 -9.9375 L 8.515625 -9.9375 L 8.515625 0 L 8.1875 0 L 1.671875 -9.125 L 1.671875 0 L 1.265625 0 L 1.265625 -9.9375 L 1.59375 -9.9375 L 8.109375 -0.8125 Z M 8.109375 -9.9375 "/></g></g></g><g fill="#f8f8f8" fill-opacity="1"><g transform="translate(304.789444, 280.266282)"><g><path d="M 4.03125 0.09375 C 3.007812 0.09375 2.203125 -0.144531 1.609375 -0.625 C 1.023438 -1.113281 0.675781 -1.878906 0.5625 -2.921875 L 0.984375 -2.96875 C 1.148438 -2.007812 1.46875 -1.328125 1.9375 -0.921875 C 2.40625 -0.523438 3.113281 -0.328125 4.0625 -0.328125 C 4.84375 -0.328125 5.460938 -0.519531 5.921875 -0.90625 C 6.378906 -1.289062 6.609375 -1.8125 6.609375 -2.46875 C 6.609375 -2.925781 6.515625 -3.289062 6.328125 -3.5625 C 6.148438 -3.832031 5.863281 -4.046875 5.46875 -4.203125 C 5.082031 -4.367188 4.578125 -4.515625 3.953125 -4.640625 C 3.421875 -4.734375 2.945312 -4.867188 2.53125 -5.046875 C 2.113281 -5.222656 1.78125 -5.488281 1.53125 -5.84375 C 1.28125 -6.207031 1.15625 -6.707031 1.15625 -7.34375 C 1.15625 -7.875 1.28125 -8.34375 1.53125 -8.75 C 1.78125 -9.15625 2.117188 -9.476562 2.546875 -9.71875 C 2.984375 -9.957031 3.484375 -10.078125 4.046875 -10.078125 C 4.847656 -10.078125 5.503906 -9.859375 6.015625 -9.421875 C 6.523438 -8.992188 6.832031 -8.347656 6.9375 -7.484375 L 6.546875 -7.4375 C 6.429688 -8.207031 6.164062 -8.769531 5.75 -9.125 C 5.34375 -9.476562 4.773438 -9.65625 4.046875 -9.65625 C 3.304688 -9.65625 2.710938 -9.445312 2.265625 -9.03125 C 1.816406 -8.613281 1.59375 -8.050781 1.59375 -7.34375 C 1.59375 -6.832031 1.691406 -6.425781 1.890625 -6.125 C 2.085938 -5.820312 2.367188 -5.585938 2.734375 -5.421875 C 3.097656 -5.265625 3.535156 -5.140625 4.046875 -5.046875 C 4.773438 -4.898438 5.359375 -4.726562 5.796875 -4.53125 C 6.234375 -4.332031 6.550781 -4.066406 6.75 -3.734375 C 6.945312 -3.410156 7.046875 -2.988281 7.046875 -2.46875 C 7.046875 -1.945312 6.914062 -1.492188 6.65625 -1.109375 C 6.40625 -0.722656 6.050781 -0.425781 5.59375 -0.21875 C 5.144531 -0.0078125 4.625 0.09375 4.03125 0.09375 Z M 4.03125 0.09375 "/></g></g></g></svg>