<svg xmlns="http://www.w3.org/2000/svg" xmlns:xlink="http://www.w3.org/1999/xlink" width="500" zoomAndPan="magnify" viewBox="0 0 375 374.999991" height="500" preserveAspectRatio="xMidYMid meet" version="1.0"><defs><g/></defs><g fill="#f8f8f8" fill-opacity="1"><g transform="translate(115.472531, 256.391278)"><g><path d="M 14.640625 0 L 21.046875 -129.921875 L 28.171875 -129.921875 L 82.15625 -5.3125 L 136.328125 -129.921875 L 143.453125 -129.921875 L 149.125 0 L 144.1875 0 L 138.515625 -122.234375 L 85.09375 0 L 79.046875 0 L 25.984375 -121.875 L 19.9375 0 Z M 14.640625 0 "/></g></g></g><g fill="#f8f8f8" fill-opacity="1"><g transform="translate(150.468568, 256.391278)"><g><path d="M 97.890625 -129.921875 L 49.765625 -59.28125 L 49.765625 0 L 44.09375 0 L 44.09375 -59.65625 L -3.65625 -129.921875 L 2.75 -129.921875 L 47.203125 -64.59375 L 91.671875 -129.921875 Z M 97.890625 -129.921875 "/></g></g></g><g fill="#f8f8f8" fill-opacity="1"><g transform="translate(68.645223, 280.266282)"><g><path d="M 1.046875 0 L 1.484375 -9.9375 L 2.53125 -9.9375 L 6.40625 -1.296875 L 10.296875 -9.9375 L 11.359375 -9.9375 L 11.71875 0 L 10.703125 0 L 10.40625 -7.875 L 6.828125 0 L 5.921875 0 L 2.40625 -7.84375 L 2.0625 0 Z M 1.046875 0 "/></g></g></g><g fill="#f8f8f8" fill-opacity="1"><g transform="translate(84.836694, 280.266282)"><g><path d="M 0.171875 0 L 4.296875 -9.9375 L 5.234375 -9.9375 L 9.203125 0 L 8.109375 0 L 7.0625 -2.65625 L 2.359375 -2.65625 L 1.28125 0 Z M 2.71875 -3.5625 L 6.71875 -3.5625 L 4.765625 -8.609375 Z M 2.71875 -3.5625 "/></g></g></g><g fill="#f8f8f8" fill-opacity="1"><g transform="translate(97.656048, 280.266282)"><g><path d="M 7.859375 -9.9375 L 8.890625 -9.9375 L 8.890625 0 L 7.96875 0 L 2.1875 -8.125 L 2.1875 0 L 1.140625 0 L 1.140625 -9.9375 L 2.078125 -9.9375 L 7.859375 -1.8125 Z M 7.859375 -9.9375 "/></g></g></g><g fill="#f8f8f8" fill-opacity="1"><g transform="translate(111.091059, 280.266282)"><g><path d="M 1.140625 0 L 1.140625 -9.9375 L 2.21875 -9.9375 L 2.21875 -5.3125 L 6.8125 -9.9375 L 8.140625 -9.9375 L 3.21875 -5 C 3.582031 -4.820312 3.90625 -4.523438 4.1875 -4.109375 L 5.71875 -1.8125 C 5.988281 -1.425781 6.210938 -1.171875 6.390625 -1.046875 C 6.578125 -0.921875 6.828125 -0.859375 7.140625 -0.859375 C 7.398438 -0.859375 7.644531 -0.929688 7.875 -1.078125 L 8.125 -0.234375 C 7.84375 -0.0234375 7.457031 0.078125 6.96875 0.078125 C 6.570312 0.078125 6.210938 -0.0078125 5.890625 -0.1875 C 5.566406 -0.375 5.25 -0.691406 4.9375 -1.140625 L 3.09375 -3.875 C 2.988281 -4.03125 2.867188 -4.15625 2.734375 -4.25 C 2.597656 -4.351562 2.425781 -4.425781 2.21875 -4.46875 L 2.21875 0 Z M 1.140625 0 "/></g></g></g><g fill="#f8f8f8" fill-opacity="1"><g transform="translate(122.357281, 280.266282)"><g><path d="M 1.140625 0 L 1.140625 -9.9375 L 2.21875 -9.9375 L 2.21875 0 Z M 1.140625 0 "/></g></g></g><g fill="#f8f8f8" fill-opacity="1"><g transform="translate(129.132005, 280.266282)"><g><path d="M 7.328125 -9.9375 L 8.40625 -9.9375 L 4.671875 0 L 3.234375 0 L 0.140625 -9.9375 L 1.265625 -9.9375 L 4 -0.875 Z M 7.328125 -9.9375 "/></g></g></g><g fill="#f8f8f8" fill-opacity="1"><g transform="translate(140.734042, 280.266282)"><g><path d="M 4.0625 0.109375 C 1.851562 0.109375 0.640625 -0.90625 0.421875 -2.9375 L 1.421875 -3.078125 C 1.566406 -2.285156 1.847656 -1.710938 2.265625 -1.359375 C 2.691406 -1.015625 3.3125 -0.84375 4.125 -0.84375 C 4.820312 -0.84375 5.363281 -1 5.75 -1.3125 C 6.132812 -1.625 6.328125 -2.054688 6.328125 -2.609375 C 6.328125 -2.960938 6.242188 -3.242188 6.078125 -3.453125 C 5.921875 -3.671875 5.675781 -3.847656 5.34375 -3.984375 C 5.007812 -4.117188 4.59375 -4.242188 4.09375 -4.359375 C 3.46875 -4.492188 2.925781 -4.660156 2.46875 -4.859375 C 2.019531 -5.054688 1.664062 -5.335938 1.40625 -5.703125 C 1.15625 -6.066406 1.03125 -6.566406 1.03125 -7.203125 C 1.03125 -7.753906 1.164062 -8.25 1.4375 -8.6875 C 1.71875 -9.125 2.097656 -9.460938 2.578125 -9.703125 C 3.054688 -9.953125 3.609375 -10.078125 4.234375 -10.078125 C 5.085938 -10.078125 5.785156 -9.84375 6.328125 -9.375 C 6.878906 -8.914062 7.207031 -8.269531 7.3125 -7.4375 L 6.375 -7.265625 C 6.238281 -7.910156 5.992188 -8.378906 5.640625 -8.671875 C 5.296875 -8.972656 4.816406 -9.125 4.203125 -9.125 C 3.566406 -9.125 3.054688 -8.953125 2.671875 -8.609375 C 2.296875 -8.273438 2.109375 -7.820312 2.109375 -7.25 C 2.109375 -6.644531 2.304688 -6.207031 2.703125 -5.9375 C 3.097656 -5.664062 3.695312 -5.445312 4.5 -5.28125 C 5.113281 -5.144531 5.632812 -4.984375 6.0625 -4.796875 C 6.5 -4.609375 6.832031 -4.34375 7.0625 -4 C 7.289062 -3.65625 7.40625 -3.195312 7.40625 -2.625 C 7.40625 -2.082031 7.257812 -1.601562 6.96875 -1.1875 C 6.6875 -0.78125 6.296875 -0.460938 5.796875 -0.234375 C 5.296875 -0.00390625 4.71875 0.109375 4.0625 0.109375 Z M 4.0625 0.109375 "/></g></g></g><g fill="#f8f8f8" fill-opacity="1"><g transform="translate(152.056225, 280.266282)"><g><path d="M 1.140625 0 L 1.140625 -9.9375 L 2.21875 -9.9375 L 2.21875 -5.3125 L 6.8125 -9.9375 L 8.140625 -9.9375 L 3.21875 -5 C 3.582031 -4.820312 3.90625 -4.523438 4.1875 -4.109375 L 5.71875 -1.8125 C 5.988281 -1.425781 6.210938 -1.171875 6.390625 -1.046875 C 6.578125 -0.921875 6.828125 -0.859375 7.140625 -0.859375 C 7.398438 -0.859375 7.644531 -0.929688 7.875 -1.078125 L 8.125 -0.234375 C 7.84375 -0.0234375 7.457031 0.078125 6.96875 0.078125 C 6.570312 0.078125 6.210938 -0.0078125 5.890625 -0.1875 C 5.566406 -0.375 5.25 -0.691406 4.9375 -1.140625 L 3.09375 -3.875 C 2.988281 -4.03125 2.867188 -4.15625 2.734375 -4.25 C 2.597656 -4.351562 2.425781 -4.425781 2.21875 -4.46875 L 2.21875 0 Z M 1.140625 0 "/></g></g></g><g fill="#f8f8f8" fill-opacity="1"><g transform="translate(163.322446, 280.266282)"><g><path d="M 7.96875 -9.9375 L 4.375 -4.5 L 4.375 0 L 3.296875 0 L 3.296875 -4.484375 L -0.328125 -9.9375 L 0.890625 -9.9375 L 3.890625 -5.4375 L 6.828125 -9.9375 Z M 7.96875 -9.9375 "/></g></g></g><g fill="#f8f8f8" fill-opacity="1"><g transform="translate(174.392779, 280.266282)"><g><path d="M 1.140625 0 L 1.140625 -9.9375 L 2.21875 -9.9375 L 2.21875 0 Z M 1.140625 0 "/></g></g></g><g fill="#f8f8f8" fill-opacity="1"><g transform="translate(181.167497, 280.266282)"><g/></g></g><g fill="#f8f8f8" fill-opacity="1"><g transform="translate(187.760324, 280.266282)"><g><path d="M 11.8125 -9.9375 L 12.859375 -9.9375 L 9.96875 0 L 8.703125 0 L 6.640625 -8.421875 L 4.1875 0 L 2.921875 0 L 0.46875 -9.9375 L 1.546875 -9.9375 L 3.609375 -1.28125 L 6.125 -9.9375 L 7.296875 -9.9375 L 9.390625 -1.296875 Z M 11.8125 -9.9375 "/></g></g></g><g fill="#f8f8f8" fill-opacity="1"><g transform="translate(204.245629, 280.266282)"><g><path d="M 6.90625 -9.015625 L 2.21875 -9.015625 L 2.21875 -5.515625 L 6.78125 -5.515625 L 6.78125 -4.59375 L 2.21875 -4.59375 L 2.21875 -0.921875 L 7.09375 -0.921875 L 7.015625 0 L 1.140625 0 L 1.140625 -9.9375 L 6.90625 -9.9375 Z M 6.90625 -9.015625 "/></g></g></g><g fill="#f8f8f8" fill-opacity="1"><g transform="translate(215.232002, 280.266282)"><g><path d="M 1.140625 0 L 1.140625 -9.9375 L 3.734375 -9.9375 C 5.128906 -9.9375 6.144531 -9.707031 6.78125 -9.25 C 7.414062 -8.800781 7.734375 -8.15625 7.734375 -7.3125 C 7.734375 -6.789062 7.585938 -6.328125 7.296875 -5.921875 C 7.015625 -5.515625 6.597656 -5.222656 6.046875 -5.046875 C 6.609375 -4.867188 7.050781 -4.570312 7.375 -4.15625 C 7.695312 -3.75 7.859375 -3.273438 7.859375 -2.734375 C 7.859375 -1.847656 7.5625 -1.171875 6.96875 -0.703125 C 6.375 -0.234375 5.566406 0 4.546875 0 Z M 3.734375 -9.046875 L 2.21875 -9.046875 L 2.21875 -5.453125 L 4 -5.453125 C 4.882812 -5.453125 5.546875 -5.597656 5.984375 -5.890625 C 6.429688 -6.191406 6.65625 -6.660156 6.65625 -7.296875 C 6.65625 -7.910156 6.421875 -8.351562 5.953125 -8.625 C 5.492188 -8.90625 4.753906 -9.046875 3.734375 -9.046875 Z M 2.21875 -0.890625 L 4.515625 -0.890625 C 5.210938 -0.890625 5.765625 -1.03125 6.171875 -1.3125 C 6.578125 -1.601562 6.78125 -2.066406 6.78125 -2.703125 C 6.78125 -3.929688 5.976562 -4.546875 4.375 -4.546875 L 2.21875 -4.546875 Z M 2.21875 -0.890625 "/></g></g></g><g fill="#f8f8f8" fill-opacity="1"><g transform="translate(227.183833, 280.266282)"><g/></g></g><g fill="#f8f8f8" fill-opacity="1"><g transform="translate(233.776659, 280.266282)"><g><path d="M 4.0625 0.109375 C 1.851562 0.109375 0.640625 -0.90625 0.421875 -2.9375 L 1.421875 -3.078125 C 1.566406 -2.285156 1.847656 -1.710938 2.265625 -1.359375 C 2.691406 -1.015625 3.3125 -0.84375 4.125 -0.84375 C 4.820312 -0.84375 5.363281 -1 5.75 -1.3125 C 6.132812 -1.625 6.328125 -2.054688 6.328125 -2.609375 C 6.328125 -2.960938 6.242188 -3.242188 6.078125 -3.453125 C 5.921875 -3.671875 5.675781 -3.847656 5.34375 -3.984375 C 5.007812 -4.117188 4.59375 -4.242188 4.09375 -4.359375 C 3.46875 -4.492188 2.925781 -4.660156 2.46875 -4.859375 C 2.019531 -5.054688 1.664062 -5.335938 1.40625 -5.703125 C 1.15625 -6.066406 1.03125 -6.566406 1.03125 -7.203125 C 1.03125 -7.753906 1.164062 -8.25 1.4375 -8.6875 C 1.71875 -9.125 2.097656 -9.460938 2.578125 -9.703125 C 3.054688 -9.953125 3.609375 -10.078125 4.234375 -10.078125 C 5.085938 -10.078125 5.785156 -9.84375 6.328125 -9.375 C 6.878906 -8.914062 7.207031 -8.269531 7.3125 -7.4375 L 6.375 -7.265625 C 6.238281 -7.910156 5.992188 -8.378906 5.640625 -8.671875 C 5.296875 -8.972656 4.816406 -9.125 4.203125 -9.125 C 3.566406 -9.125 3.054688 -8.953125 2.671875 -8.609375 C 2.296875 -8.273438 2.109375 -7.820312 2.109375 -7.25 C 2.109375 -6.644531 2.304688 -6.207031 2.703125 -5.9375 C 3.097656 -5.664062 3.695312 -5.445312 4.5 -5.28125 C 5.113281 -5.144531 5.632812 -4.984375 6.0625 -4.796875 C 6.5 -4.609375 6.832031 -4.34375 7.0625 -4 C 7.289062 -3.65625 7.40625 -3.195312 7.40625 -2.625 C 7.40625 -2.082031 7.257812 -1.601562 6.96875 -1.1875 C 6.6875 -0.78125 6.296875 -0.460938 5.796875 -0.234375 C 5.296875 -0.00390625 4.71875 0.109375 4.0625 0.109375 Z M 4.0625 0.109375 "/></g></g></g><g fill="#f8f8f8" fill-opacity="1"><g transform="translate(245.098836, 280.266282)"><g><path d="M 5.3125 0.109375 C 4.394531 0.109375 3.597656 -0.0820312 2.921875 -0.46875 C 2.242188 -0.851562 1.722656 -1.410156 1.359375 -2.140625 C 0.992188 -2.867188 0.8125 -3.75 0.8125 -4.78125 C 0.8125 -5.820312 1.015625 -6.738281 1.421875 -7.53125 C 1.828125 -8.332031 2.382812 -8.957031 3.09375 -9.40625 C 3.8125 -9.851562 4.644531 -10.078125 5.59375 -10.078125 C 6.457031 -10.078125 7.21875 -9.867188 7.875 -9.453125 C 8.53125 -9.046875 9.039062 -8.476562 9.40625 -7.75 C 9.769531 -7.019531 9.953125 -6.160156 9.953125 -5.171875 C 9.953125 -4.097656 9.75 -3.164062 9.34375 -2.375 C 8.945312 -1.582031 8.398438 -0.96875 7.703125 -0.53125 C 7.003906 -0.101562 6.207031 0.109375 5.3125 0.109375 Z M 5.3125 -0.875 C 6.019531 -0.875 6.632812 -1.046875 7.15625 -1.390625 C 7.6875 -1.734375 8.097656 -2.226562 8.390625 -2.875 C 8.691406 -3.519531 8.84375 -4.289062 8.84375 -5.1875 C 8.84375 -5.988281 8.707031 -6.679688 8.4375 -7.265625 C 8.175781 -7.847656 7.800781 -8.296875 7.3125 -8.609375 C 6.832031 -8.929688 6.257812 -9.09375 5.59375 -9.09375 C 4.875 -9.09375 4.238281 -8.910156 3.6875 -8.546875 C 3.132812 -8.191406 2.703125 -7.691406 2.390625 -7.046875 C 2.078125 -6.398438 1.921875 -5.644531 1.921875 -4.78125 C 1.921875 -3.53125 2.222656 -2.566406 2.828125 -1.890625 C 3.429688 -1.210938 4.257812 -0.875 5.3125 -0.875 Z M 5.3125 -0.875 "/></g></g></g><g fill="#f8f8f8" fill-opacity="1"><g transform="translate(259.261437, 280.266282)"><g><path d="M 1.140625 0 L 1.140625 -9.9375 L 2.21875 -9.9375 L 2.21875 -0.9375 L 6.875 -0.9375 L 6.78125 0 Z M 1.140625 0 "/></g></g></g><g fill="#f8f8f8" fill-opacity="1"><g transform="translate(269.436264, 280.266282)"><g><path d="M 7.90625 -9.9375 L 8.984375 -9.9375 L 9 -4.78125 C 9 -3.1875 8.664062 -1.972656 8 -1.140625 C 7.332031 -0.304688 6.328125 0.109375 4.984375 0.109375 C 3.679688 0.109375 2.707031 -0.238281 2.0625 -0.9375 C 1.425781 -1.632812 1.109375 -2.734375 1.109375 -4.234375 L 1.109375 -9.9375 L 2.21875 -9.9375 L 2.21875 -4.296875 C 2.21875 -3.097656 2.4375 -2.226562 2.875 -1.6875 C 3.3125 -1.144531 4.015625 -0.875 4.984375 -0.875 C 6.015625 -0.875 6.765625 -1.191406 7.234375 -1.828125 C 7.703125 -2.472656 7.929688 -3.457031 7.921875 -4.78125 Z M 7.90625 -9.9375 "/></g></g></g><g fill="#f8f8f8" fill-opacity="1"><g transform="translate(282.94123, 280.266282)"><g><path d="M 7.640625 -9.9375 L 7.546875 -9 L 4.375 -9 L 4.375 0 L 3.28125 0 L 3.28125 -9 L 0.03125 -9 L 0.03125 -9.9375 Z M 7.640625 -9.9375 "/></g></g></g><g fill="#f8f8f8" fill-opacity="1"><g transform="translate(293.983565, 280.266282)"><g><path d="M 1.140625 0 L 1.140625 -9.9375 L 2.21875 -9.9375 L 2.21875 0 Z M 1.140625 0 "/></g></g></g><g fill="#f8f8f8" fill-opacity="1"><g transform="translate(300.758283, 280.266282)"><g><path d="M 5.3125 0.109375 C 4.394531 0.109375 3.597656 -0.0820312 2.921875 -0.46875 C 2.242188 -0.851562 1.722656 -1.410156 1.359375 -2.140625 C 0.992188 -2.867188 0.8125 -3.75 0.8125 -4.78125 C 0.8125 -5.820312 1.015625 -6.738281 1.421875 -7.53125 C 1.828125 -8.332031 2.382812 -8.957031 3.09375 -9.40625 C 3.8125 -9.851562 4.644531 -10.078125 5.59375 -10.078125 C 6.457031 -10.078125 7.21875 -9.867188 7.875 -9.453125 C 8.53125 -9.046875 9.039062 -8.476562 9.40625 -7.75 C 9.769531 -7.019531 9.953125 -6.160156 9.953125 -5.171875 C 9.953125 -4.097656 9.75 -3.164062 9.34375 -2.375 C 8.945312 -1.582031 8.398438 -0.96875 7.703125 -0.53125 C 7.003906 -0.101562 6.207031 0.109375 5.3125 0.109375 Z M 5.3125 -0.875 C 6.019531 -0.875 6.632812 -1.046875 7.15625 -1.390625 C 7.6875 -1.734375 8.097656 -2.226562 8.390625 -2.875 C 8.691406 -3.519531 8.84375 -4.289062 8.84375 -5.1875 C 8.84375 -5.988281 8.707031 -6.679688 8.4375 -7.265625 C 8.175781 -7.847656 7.800781 -8.296875 7.3125 -8.609375 C 6.832031 -8.929688 6.257812 -9.09375 5.59375 -9.09375 C 4.875 -9.09375 4.238281 -8.910156 3.6875 -8.546875 C 3.132812 -8.191406 2.703125 -7.691406 2.390625 -7.046875 C 2.078125 -6.398438 1.921875 -5.644531 1.921875 -4.78125 C 1.921875 -3.53125 2.222656 -2.566406 2.828125 -1.890625 C 3.429688 -1.210938 4.257812 -0.875 5.3125 -0.875 Z M 5.3125 -0.875 "/></g></g></g><g fill="#f8f8f8" fill-opacity="1"><g transform="translate(314.920895, 280.266282)"><g><path d="M 7.859375 -9.9375 L 8.890625 -9.9375 L 8.890625 0 L 7.96875 0 L 2.1875 -8.125 L 2.1875 0 L 1.140625 0 L 1.140625 -9.9375 L 2.078125 -9.9375 L 7.859375 -1.8125 Z M 7.859375 -9.9375 "/></g></g></g><g fill="#f8f8f8" fill-opacity="1"><g transform="translate(328.355915, 280.266282)"><g><path d="M 4.0625 0.109375 C 1.851562 0.109375 0.640625 -0.90625 0.421875 -2.9375 L 1.421875 -3.078125 C 1.566406 -2.285156 1.847656 -1.710938 2.265625 -1.359375 C 2.691406 -1.015625 3.3125 -0.84375 4.125 -0.84375 C 4.820312 -0.84375 5.363281 -1 5.75 -1.3125 C 6.132812 -1.625 6.328125 -2.054688 6.328125 -2.609375 C 6.328125 -2.960938 6.242188 -3.242188 6.078125 -3.453125 C 5.921875 -3.671875 5.675781 -3.847656 5.34375 -3.984375 C 5.007812 -4.117188 4.59375 -4.242188 4.09375 -4.359375 C 3.46875 -4.492188 2.925781 -4.660156 2.46875 -4.859375 C 2.019531 -5.054688 1.664062 -5.335938 1.40625 -5.703125 C 1.15625 -6.066406 1.03125 -6.566406 1.03125 -7.203125 C 1.03125 -7.753906 1.164062 -8.25 1.4375 -8.6875 C 1.71875 -9.125 2.097656 -9.460938 2.578125 -9.703125 C 3.054688 -9.953125 3.609375 -10.078125 4.234375 -10.078125 C 5.085938 -10.078125 5.785156 -9.84375 6.328125 -9.375 C 6.878906 -8.914062 7.207031 -8.269531 7.3125 -7.4375 L 6.375 -7.265625 C 6.238281 -7.910156 5.992188 -8.378906 5.640625 -8.671875 C 5.296875 -8.972656 4.816406 -9.125 4.203125 -9.125 C 3.566406 -9.125 3.054688 -8.953125 2.671875 -8.609375 C 2.296875 -8.273438 2.109375 -7.820312 2.109375 -7.25 C 2.109375 -6.644531 2.304688 -6.207031 2.703125 -5.9375 C 3.097656 -5.664062 3.695312 -5.445312 4.5 -5.28125 C 5.113281 -5.144531 5.632812 -4.984375 6.0625 -4.796875 C 6.5 -4.609375 6.832031 -4.34375 7.0625 -4 C 7.289062 -3.65625 7.40625 -3.195312 7.40625 -2.625 C 7.40625 -2.082031 7.257812 -1.601562 6.96875 -1.1875 C 6.6875 -0.78125 6.296875 -0.460938 5.796875 -0.234375 C 5.296875 -0.00390625 4.71875 0.109375 4.0625 0.109375 Z M 4.0625 0.109375 "/></g></g></g></svg>